<svg width="24" height="24" viewBox="0 0 24 24" fill="none" xmlns="http://www.w3.org/2000/svg">
<g id="mail">
<path id="Vector" d="M20.25 19.5H3.75C3.15326 19.5 2.58097 19.2629 2.15901 18.841C1.73705 18.419 1.5 17.8467 1.5 17.25V6.75C1.5 6.15326 1.73705 5.58097 2.15901 5.15901C2.58097 4.73705 3.15326 4.5 3.75 4.5H20.25C20.8467 4.5 21.419 4.73705 21.841 5.15901C22.2629 5.58097 22.5 6.15326 22.5 6.75V17.25C22.5 17.8467 22.2629 18.419 21.841 18.841C21.419 19.2629 20.8467 19.5 20.25 19.5ZM3.75 6C3.55109 6 3.36032 6.07902 3.21967 6.21967C3.07902 6.36032 3 6.55109 3 6.75V17.25C3 17.4489 3.07902 17.6397 3.21967 17.7803C3.36032 17.921 3.55109 18 3.75 18H20.25C20.4489 18 20.6397 17.921 20.7803 17.7803C20.921 17.6397 21 17.4489 21 17.25V6.75C21 6.55109 20.921 6.36032 20.7803 6.21967C20.6397 6.07902 20.4489 6 20.25 6H3.75Z" fill="white"/>
<path id="Vector_2" d="M12.0045 12.7506C11.8575 12.7495 11.7141 12.7052 11.592 12.6231L2.59202 6.62314C2.44649 6.50592 2.34997 6.33859 2.32135 6.15392C2.29273 5.96925 2.33408 5.78055 2.43731 5.62478C2.54053 5.469 2.69819 5.35738 2.87941 5.31176C3.06063 5.26614 3.25235 5.28981 3.41702 5.37814L12.417 11.3781C12.55 11.4675 12.6509 11.5971 12.7049 11.748C12.7589 11.8989 12.7631 12.0631 12.717 12.2165C12.6709 12.37 12.5768 12.5047 12.4486 12.6008C12.3204 12.6969 12.1648 12.7494 12.0045 12.7506Z" fill="white"/>
<path id="Vector_3" d="M12.0017 12.7503C11.8408 12.7507 11.6841 12.6993 11.5546 12.6038C11.4252 12.5082 11.3299 12.3736 11.2828 12.2198C11.2358 12.066 11.2394 11.9011 11.2932 11.7494C11.347 11.5978 11.4482 11.4676 11.5817 11.3778L20.5817 5.37782C20.7467 5.28026 20.9428 5.2496 21.1298 5.29213C21.3167 5.33467 21.4803 5.44718 21.5868 5.60655C21.6934 5.76591 21.7349 5.96004 21.7028 6.14904C21.6707 6.33805 21.5674 6.50758 21.4142 6.62282L12.4142 12.6228C12.2921 12.7048 12.1487 12.7492 12.0017 12.7503Z" fill="white"/>
</g>
</svg>
